# xmcd
#
# Track frame offsets: 
#        150
#        22615
#        35233
#        55111
#        72477
#        84068
#        98748
#        111989
#        131379
#        151472
#        162440
#        182229
#        198287
#        222730
#
# Disc length: 3231 seconds
#
# Revision: 0
# Processed by: cddbd v1.5.2PL0 Copyright (c) Steve Scherf et al.
# Submitted via: ExactAudioCopy v0.99pb5
#
DISCID=be0c9d0e
DTITLE=Олег Митяев - Крепитесь, люди, скоро лето
DYEAR=1998
DGENRE=Chanson
TTITLE0=Крепитесь, люди, скоро лето!
TTITLE1=Ночная прогулка
TTITLE2=Мама
TTITLE3=Питер
TTITLE4=На перроне разлук
TTITLE5=Тот день
TTITLE6=Непраздничные вещи
TTITLE7=Воскресение
TTITLE8=Когда проходят дни запоя
TTITLE9=А казалось бы
TTITLE10=Чужая война
TTITLE11=Не надо сердиться
TTITLE12=Остров
TTITLE13=Телеграмма
EXTD=
EXTT0=
EXTT1=
EXTT2=
EXTT3=
EXTT4=
EXTT5=
EXTT6=
EXTT7=
EXTT8=
EXTT9=
EXTT10=
EXTT11=
EXTT12=
EXTT13=
PLAYORDER=
